<svg width="350" height="350" viewBox="0 0 350 350" fill="none" xmlns="http://www.w3.org/2000/svg">
<circle cx="175" cy="175" r="174.5" fill="#2A412F" stroke="black"/>
<path d="M96.648 200.016L50.952 182.64V170.16L96.648 152.784V164.784L55.464 179.76V173.04L96.648 188.016V200.016ZM109.381 210V158.352H123.685V172.944L121.669 168.72C123.205 165.072 125.669 162.32 129.061 160.464C132.453 158.544 136.581 157.584 141.445 157.584V171.408C140.805 171.344 140.229 171.312 139.717 171.312C139.205 171.248 138.661 171.216 138.085 171.216C133.989 171.216 130.661 172.4 128.101 174.768C125.605 177.072 124.357 180.688 124.357 185.616V210H109.381ZM180.971 210.768C176.427 210.768 172.523 209.808 169.259 207.888C165.995 205.968 163.499 203.056 161.771 199.152C160.043 195.184 159.179 190.192 159.179 184.176C159.179 178.096 160.075 173.104 161.867 169.2C163.723 165.296 166.283 162.384 169.547 160.464C172.811 158.544 176.619 157.584 180.971 157.584C185.835 157.584 190.187 158.672 194.027 160.848C197.931 163.024 201.003 166.096 203.243 170.064C205.547 174.032 206.699 178.736 206.699 184.176C206.699 189.552 205.547 194.224 203.243 198.192C201.003 202.16 197.931 205.264 194.027 207.504C190.187 209.68 185.835 210.768 180.971 210.768ZM150.443 210V138.768H165.419V168.816L164.459 184.08L164.747 199.44V210H150.443ZM178.379 198.48C180.875 198.48 183.083 197.904 185.003 196.752C186.987 195.6 188.555 193.968 189.707 191.856C190.923 189.68 191.531 187.12 191.531 184.176C191.531 181.168 190.923 178.608 189.707 176.496C188.555 174.384 186.987 172.752 185.003 171.6C183.083 170.448 180.875 169.872 178.379 169.872C175.883 169.872 173.643 170.448 171.659 171.6C169.675 172.752 168.107 174.384 166.955 176.496C165.803 178.608 165.227 181.168 165.227 184.176C165.227 187.12 165.803 189.68 166.955 191.856C168.107 193.968 169.675 195.6 171.659 196.752C173.643 197.904 175.883 198.48 178.379 198.48ZM206.645 219.6L238.325 129.168H251.669L219.989 219.6H206.645ZM253.358 200.016V188.016L294.542 173.04V179.76L253.358 164.784V152.784L299.054 170.16V182.64L253.358 200.016Z" fill="white"/>
</svg>
